<svg xmlns="http://www.w3.org/2000/svg" xmlns:svg="http://www.w3.org/2000/svg" id="svg2" width="677.611" height="179.549" version="1.1"><metadata id="metadata7"/><g id="layer1" transform="translate(-49.00717,-350.11674)"><g id="g3859" transform="matrix(0.65068572,0,0,0.65068572,11.104727,118.00494)"><path style="fill:#000;fill-opacity:1;fill-rule:nonzero;stroke:none" id="rect2985" d="m 101.39622,391.43518 191.99569,0 c 5.04555,0 9.10749,46.87698 9.10749,105.10533 0,58.22836 -4.06194,105.10533 -9.10749,105.10533 l -191.99569,0 c -5.045545,0 -9.107486,-46.87697 -9.107486,-105.10533 0,-58.22835 4.061941,-105.10533 9.107486,-105.10533 z"/><path id="path3789" d="m 165.8125,358.21875 -5.1875,99.21875 -100.875,0 0,7.625 100.46875,0 -3.28125,62.59375 -97.1875,0 0,7.59375 96.78125,0 -5,95.5 7.625,0.40625 5.03125,-95.90625 62.5625,0 -5,95.5 7.59375,0.40625 5.03125,-95.90625 98.28125,0 0,-7.59375 -97.875,0 3.28125,-62.59375 94.59375,0 0,-7.625 -94.1875,0 5.15625,-98.84375 -7.59375,-0.375 -5.1875,99.21875 -62.5625,0 5.15625,-98.84375 -7.625,-0.375 z m 2.0625,106.84375 62.5625,0 -3.28125,62.59375 -62.5625,0 3.28125,-62.59375 z" style="fill:#000;fill-opacity:1;stroke:#fff;stroke-width:3;stroke-linecap:butt;stroke-linejoin:miter;stroke-miterlimit:4;stroke-opacity:1;stroke-dasharray:none"/></g><text style="font-size:104.73602295px;font-style:normal;font-variant:normal;font-weight:400;font-stretch:normal;text-align:start;line-height:125%;letter-spacing:0;word-spacing:0;writing-mode:lr-tb;text-anchor:start;fill:#000;fill-opacity:1;stroke:none;font-family:Roboto;-inkscape-font-specification:Roboto" id="text3851" x="235.157" y="477.121" xml:space="preserve"><tspan id="tspan3853" x="235.157" y="477.121" style="font-weight:700;-inkscape-font-specification:Roboto Bold">GRIDSTER</tspan></text><text style="font-size:80px;font-style:normal;font-variant:normal;font-weight:400;font-stretch:normal;text-align:start;line-height:125%;letter-spacing:0;word-spacing:0;writing-mode:lr-tb;text-anchor:start;fill:#000;fill-opacity:1;stroke:none;font-family:Roboto;-inkscape-font-specification:Sans" id="text3855" x="304.802" y="512.317" xml:space="preserve"><tspan id="tspan3857" x="304.802" y="512.317" style="font-size:30px;font-style:normal;font-variant:normal;font-weight:300;font-stretch:normal;text-align:start;line-height:125%;writing-mode:lr-tb;text-anchor:start;font-family:Roboto Light;-inkscape-font-specification:'Roboto Light, Light'">the material experience for jekyll</tspan></text></g></svg>